<svg width="48" height="48" viewBox="0 0 48 48" fill="none" xmlns="http://www.w3.org/2000/svg">
<path d="M23.2384 0.873047L18.4092 3.88191" stroke="#2979FF" stroke-width="0.25" stroke-miterlimit="10"/>
<path d="M27.7582 0.873047L21.5781 4.72306" stroke="#2979FF" stroke-width="0.25" stroke-miterlimit="10"/>
<path d="M30.8665 1.85352L24.3027 5.94228" stroke="#2979FF" stroke-width="0.25" stroke-miterlimit="10"/>
<path d="M33.9072 2.97656L26.4443 7.62504" stroke="#2979FF" stroke-width="0.25" stroke-miterlimit="10"/>
<path d="M36.3154 4.29297L27.9497 9.50327" stroke="#2979FF" stroke-width="0.25" stroke-miterlimit="10"/>
<path d="M38.3736 6.12793L28.8184 12.0798" stroke="#2979FF" stroke-width="0.25" stroke-miterlimit="10"/>
<path d="M40.2672 7.95996L28.9648 15.0044" stroke="#2979FF" stroke-width="0.25" stroke-miterlimit="10"/>
<path d="M41.8793 9.78711L28.3877 18.1913" stroke="#2979FF" stroke-width="0.25" stroke-miterlimit="10"/>
<path d="M43.1874 11.8887L25.0947 23.1589" stroke="#2979FF" stroke-width="0.25" stroke-miterlimit="10"/>
<path d="M44.5415 14.0615L20.3926 29.1042" stroke="#2979FF" stroke-width="0.25" stroke-miterlimit="10"/>
<path d="M45.805 16.0898L19.3135 32.6262" stroke="#2979FF" stroke-width="0.25" stroke-miterlimit="10"/>
<path d="M46.4069 18.6309L19.3135 35.5277" stroke="#2979FF" stroke-width="0.25" stroke-miterlimit="10"/>
<path d="M46.9512 21.3076L19.7402 38.2587" stroke="#2979FF" stroke-width="0.25" stroke-miterlimit="10"/>
<path d="M47.2828 23.9053L21.0405 40.1939" stroke="#2979FF" stroke-width="0.25" stroke-miterlimit="10"/>
<path d="M46.951 27.0791L22.9834 41.9864" stroke="#2979FF" stroke-width="0.25" stroke-miterlimit="10"/>
<path d="M46.4072 30.3848L25.4253 43.4537" stroke="#2979FF" stroke-width="0.25" stroke-miterlimit="10"/>
<path d="M44.2663 34.5332L26.6885 45.4819" stroke="#2979FF" stroke-width="0.25" stroke-miterlimit="10"/>
<path d="M41.0941 39.626L30.7051 46.0964" stroke="#2979FF" stroke-width="0.25" stroke-miterlimit="10"/>
<path fill-rule="evenodd" clip-rule="evenodd" d="M47.728 20.2667C47.3734 18.4648 46.9375 16.695 46.2292 14.9869C45.7659 13.851 45.2162 12.7524 44.5848 11.7008C43.8467 10.3928 42.9489 9.18148 41.9122 8.09478C41.6165 7.61623 41.1743 7.27576 40.779 6.89208C40.4402 6.452 39.9975 6.11733 39.5785 5.76369C39.0277 5.30095 38.4943 4.81028 37.8529 4.46454C37.0687 3.83684 36.2123 3.32034 35.3232 2.85918C34.404 2.36693 33.4722 1.90261 32.4814 1.56794C31.6623 1.25857 30.8475 0.949196 29.9795 0.792138C29.2886 0.570236 28.5773 0.417868 27.8561 0.337304C27.6737 0.303047 27.4872 0.278802 27.3053 0.237693C26.7656 0.114893 26.1985 0.177612 25.6652 0H22.3364C22.231 0.147044 22.055 0.0390008 21.9269 0.105408C21.0805 0.178666 20.2335 0.252978 19.4092 0.474334C18.935 0.526143 18.4684 0.632246 18.0184 0.790557C17.6037 0.857647 17.1988 0.974987 16.8125 1.13998C16.549 1.16528 16.3139 1.26647 16.0805 1.38242C15.8169 1.40403 15.594 1.54053 15.3553 1.63698C14.9257 1.78244 14.5057 1.94108 14.1188 2.17614C13.7083 2.26785 13.371 2.51608 12.9983 2.69053C12.1024 3.17751 11.1943 3.65079 10.3953 4.298C10.2245 4.32171 10.1086 4.44609 9.98052 4.54043C8.0152 5.97661 6.27702 7.64996 4.82082 9.6C2.18826 13.1333 0.600298 17.0766 0.142828 21.4715C0.0985573 21.8932 0.168125 22.3348 0 22.7428V25.1792C0.0801098 25.8712 0.150734 26.5622 0.241384 27.2516C0.537308 29.5019 1.16516 31.6959 2.10446 33.7621C3.59651 37.0655 5.74103 39.8836 8.49533 42.2358C9.04608 42.7064 9.59526 43.1845 10.2346 43.5444C11.0778 44.2296 12.0376 44.7392 12.9936 45.2446C13.343 45.495 13.7562 45.6136 14.1362 45.8017C14.5578 45.9915 14.9631 46.217 15.4196 46.3193C15.6472 46.469 15.906 46.5433 16.1664 46.606C16.3987 46.7169 16.6442 46.798 16.8968 46.8474C17.1688 46.9291 17.4397 47.0118 17.7116 47.093C18.2387 47.2792 18.7822 47.4149 19.3349 47.4983C20.2414 47.736 21.1727 47.8213 22.1008 47.9062C22.1008 47.9373 22.0955 47.9705 22.094 48.0026H25.5819C25.6141 47.8746 25.7247 47.9199 25.8075 47.8972C26.11 47.8108 26.4357 47.9025 26.733 47.7802C27.1406 47.7645 27.5454 47.704 27.9399 47.6C28.6856 47.5163 29.4203 47.3531 30.1313 47.113C30.6394 47.0424 31.1126 46.8653 31.5901 46.6914C32.5235 46.4062 33.4348 46.0658 34.288 45.5846C35.4201 45.1271 36.4489 44.4868 37.4403 43.7816C38.409 43.1892 39.2849 42.4729 40.1129 41.7077C40.4533 41.3915 40.8908 41.1622 41.1069 40.7195C41.3625 40.5951 41.4816 40.3379 41.6629 40.1398C42.0255 39.7313 42.4044 39.3339 42.747 38.9102C43.4548 38.0353 44.1136 37.1246 44.6554 36.1348C46.3024 33.4274 47.2732 30.4828 47.7718 27.3675C47.8493 26.8821 47.8161 26.3793 48 25.9113V22.1746C47.8414 21.548 47.8524 20.8971 47.728 20.2667ZM14.356 4.07928C14.1309 4.05925 14.1336 3.89745 14.1336 3.7309C14.1309 3.89903 14.1283 4.05925 14.356 4.07928ZM19.4013 45.583C18.8543 45.4512 18.3079 45.3202 17.7622 45.1898C17.7549 45.1886 17.7473 45.1899 17.7408 45.1935C17.7343 45.1972 17.7292 45.2029 17.7264 45.2099C17.7048 45.1166 17.6247 45.1208 17.5556 45.1045C17.2326 44.9991 16.9084 44.89 16.5875 44.7819C16.4942 44.7566 16.402 44.7292 16.3087 44.7018C16.3038 44.7008 16.2988 44.7009 16.2939 44.7019C16.2891 44.703 16.2845 44.705 16.2805 44.708C16.2765 44.7109 16.2731 44.7146 16.2706 44.7189C16.2681 44.7232 16.2665 44.728 16.266 44.7329C16.2702 44.6528 16.2133 44.6459 16.1542 44.638C15.9513 44.5021 15.7247 44.4351 15.4902 44.3845C15.4248 44.7007 15.4232 45.0259 15.4301 45.349C15.4232 45.0259 15.4248 44.7034 15.4902 44.3835C15.4857 44.3826 15.4811 44.3826 15.4766 44.3836C15.4721 44.3846 15.4679 44.3865 15.4642 44.3893C15.4605 44.392 15.4575 44.3955 15.4552 44.3995C15.453 44.4035 15.4516 44.4079 15.4512 44.4125C15.4675 44.3381 15.4085 44.326 15.3621 44.307C14.9552 44.1205 14.5489 43.9334 14.1431 43.7458C13.7805 43.5539 13.4163 43.3615 13.0537 43.166C13.05 43.165 13.0462 43.1647 13.0424 43.1653C13.0386 43.1658 13.035 43.1671 13.0317 43.169C13.0285 43.171 13.0257 43.1736 13.0234 43.1767C13.0212 43.1798 13.0197 43.1834 13.0189 43.1871C12.9941 43.1857 12.9708 43.1748 12.9539 43.1566C12.937 43.1384 12.9278 43.1144 12.9282 43.0896C12.1066 42.5868 11.3145 42.0429 10.5302 41.4816C8.68875 39.9943 7.04281 38.3194 5.71889 36.3498C2.84074 32.065 1.54159 27.3375 1.98324 22.1962C2.53558 15.7858 5.41848 10.5845 10.4343 6.56004C10.5492 6.46518 10.6609 6.36767 10.7758 6.27333C11.5464 5.76105 12.3167 5.24983 13.0869 4.73965C13.3247 4.70781 13.5488 4.60974 13.7336 4.45663C13.7863 4.45927 13.8469 4.47824 13.8917 4.46085C14.8762 4.10194 15.8802 4.10984 16.8958 4.27955C17.6199 4.43766 18.3478 4.58892 19.0851 4.67957L20.0896 4.92728C20.4312 5.03532 20.7748 5.14231 21.1137 5.24877C21.6286 5.4638 22.1446 5.67725 22.6579 5.89018C23.3209 6.2454 23.9797 6.60906 24.6053 7.02911C25.2527 7.52918 25.8543 8.08582 26.403 8.69244C26.4494 8.76043 26.4921 8.82684 26.5401 8.89219C27.9952 10.7895 28.5512 12.9251 28.2698 15.2894C28.0701 16.9727 27.4935 18.5259 26.6455 19.98C26.6133 20.0327 26.5817 20.0854 26.5506 20.1344C26.4615 20.2667 26.3746 20.398 26.2871 20.5334C25.8417 21.1052 25.399 21.6787 24.9537 22.2521C24.9347 22.2747 24.9173 22.2963 24.901 22.3201C24.8583 22.3696 24.814 22.4191 24.7687 22.4682C24.2286 23.0616 23.6872 23.6538 23.1444 24.2448C23.1403 24.272 23.1275 24.297 23.1077 24.3161C23.088 24.3351 23.0625 24.3471 23.0353 24.3502C22.9899 24.3982 22.9457 24.4461 22.9003 24.4952C22.1419 25.2625 21.4294 26.0715 20.8122 26.9612C20.4985 27.3676 20.2184 27.7989 19.9747 28.2508C19.3683 29.2789 18.9602 30.4116 18.7715 31.5901C18.5044 32.8739 18.4726 34.1956 18.6777 35.4908C18.816 36.691 19.1717 37.8559 19.7276 38.9286C19.7272 38.9393 19.7292 38.9498 19.7336 38.9595C19.738 38.9692 19.7446 38.9778 19.7529 38.9845C19.8314 39.1621 19.8967 39.3487 20.0433 39.4862L20.0369 39.4899C20.0355 39.5018 20.0372 39.5138 20.0419 39.5247C20.0465 39.5357 20.0539 39.5453 20.0633 39.5526C20.2165 39.8717 20.4034 40.1735 20.6209 40.4528C21.2886 41.4058 22.1117 42.2397 23.0558 42.9199C23.6777 43.4095 24.3402 43.8243 25.0754 44.1215L25.0833 44.1178L25.2499 44.2232C25.6541 44.4868 26.1501 44.5511 26.5501 44.823C26.3303 44.8394 26.1126 44.8404 25.906 44.7513L24.5458 44.3713L23.5549 44.0135L22.5008 43.5297C22.2568 43.3716 22.0112 43.2177 21.7661 43.0617C21.686 43.0042 21.6044 42.9468 21.5248 42.8883C21.5185 42.8776 21.5095 42.8688 21.4986 42.8628C21.4878 42.8569 21.4755 42.854 21.4631 42.8545L21.4605 42.8693C21.431 42.8403 21.3993 42.8134 21.3672 42.7839L21.3751 42.7934C21.3456 42.767 21.3166 42.7407 21.2871 42.7133C21.0647 42.7027 21.0325 42.8377 21.0336 43.0242C21.0336 42.8377 21.0647 42.7027 21.2871 42.7133L20.5429 42.0808C20.4939 42.0355 20.4443 41.9918 20.3964 41.9464C20.2109 41.768 20.0264 41.5893 19.843 41.4104C19.287 40.7891 18.7562 40.1455 18.2619 39.4741C18.0247 39.083 17.7875 38.6936 17.5525 38.303C17.3828 37.9615 17.2129 37.6205 17.0428 37.28C16.7883 36.7425 16.6386 36.1585 16.335 35.6425H16.3429C16.3361 35.5898 16.3282 35.5371 16.3229 35.4844C16.1121 34.8377 16.0199 34.1563 15.76 33.5228C15.7619 33.5019 15.7619 33.4809 15.76 33.4601C15.8349 33.3773 15.7922 33.292 15.76 33.2066C15.7268 32.9641 15.6931 32.7243 15.6599 32.4814C15.6441 32.0118 15.6356 31.5438 15.6072 31.0784C15.5819 30.7063 15.702 30.3353 15.6072 29.9648L15.614 29.9727C15.8486 29.142 15.8886 28.2672 16.1658 27.4455C16.4048 26.7951 16.6426 26.1451 16.8795 25.4955C16.938 25.3595 16.9954 25.2251 17.0539 25.0902C17.0623 25.0811 17.0688 25.0704 17.073 25.0587C17.0772 25.047 17.0789 25.0346 17.0781 25.0222H17.0702C17.1062 24.9945 17.1343 24.9579 17.1518 24.9161C17.1693 24.8742 17.1755 24.8285 17.1699 24.7834C17.1999 24.7708 17.2247 24.7482 17.24 24.7193C17.2553 24.6905 17.2601 24.6573 17.2536 24.6253H17.2616C17.3954 24.4757 17.466 24.2944 17.5367 24.1115C17.563 24.0588 17.5894 24.0061 17.6168 23.9534C17.6263 23.9488 17.6338 23.9409 17.638 23.9312C17.6421 23.9216 17.6426 23.9107 17.6394 23.9007C17.9325 23.4031 18.2253 22.9056 18.518 22.4081C18.8437 21.9337 19.1647 21.452 19.4941 20.9782C19.863 20.4512 20.2546 19.9368 20.4881 19.3286C20.9013 18.5712 21.1205 17.7512 21.2375 16.9069C21.461 15.2788 21.3024 13.7051 20.477 12.242C20.0425 11.362 19.362 10.6269 18.518 10.126C18.314 9.96155 18.0964 9.82821 17.8329 9.79079H17.8113L17.8049 9.80923C17.8155 9.72016 17.7522 9.71595 17.69 9.70804C17.4819 9.54519 17.2289 9.50513 16.9849 9.43873C16.7018 9.34386 16.4204 9.2453 16.0578 9.27324C16.355 9.72649 16.6259 10.1386 16.8968 10.5508C17.0059 10.8096 17.1366 11.0641 17.221 11.3297C17.4634 12.115 17.1994 12.8054 16.7872 13.4632C16.6393 13.6477 16.4917 13.8323 16.3445 14.0171C16.2844 14.0782 16.2259 14.141 16.1658 14.2037C15.8965 14.4477 15.6256 14.6901 15.3563 14.9347C15.1924 15.0707 15.0285 15.205 14.8641 15.34C14.3272 15.7159 13.7894 16.0915 13.2508 16.4668C11.6744 17.4682 10.2836 18.6803 9.11618 20.1408C9.10619 20.1471 9.09808 20.1561 9.0927 20.1666C9.08733 20.1772 9.08488 20.189 9.08561 20.2008V20.2045C8.96127 20.2896 8.86293 20.4074 8.80154 20.545C8.79205 20.5677 8.78151 20.5903 8.77097 20.614C8.63183 20.7917 8.48005 20.9608 8.35461 21.149C6.15317 24.4214 5.61032 27.982 6.54634 31.7857C6.97166 33.5101 7.63467 35.1382 8.60706 36.6344C8.61497 36.6782 8.62024 36.7235 8.68401 36.7129C8.67874 36.7224 8.66925 36.7346 8.67083 36.7425C8.67531 36.7641 8.68239 36.7852 8.69192 36.8052C8.76149 36.9875 8.85002 37.1583 9.0055 37.2837L9.00023 37.2932C8.99795 37.305 8.99895 37.3172 9.00314 37.3284C9.00732 37.3397 9.01452 37.3496 9.02395 37.357C10.2762 39.3439 11.8889 40.983 13.8105 42.3249C14.2082 42.6546 14.6363 42.9458 15.0891 43.1945C15.4164 43.4316 15.7479 43.6556 16.1284 43.8037C16.1349 43.8012 16.1411 43.798 16.1469 43.7942C16.1703 43.7948 16.1926 43.8044 16.2091 43.8212C16.2255 43.8379 16.2348 43.8604 16.2349 43.8838C16.4257 43.9892 16.6149 44.0947 16.8057 44.2001C16.9593 44.3132 17.1319 44.398 17.3153 44.4504C17.5705 44.6166 17.8443 44.7523 18.1312 44.8546C18.6053 45.1205 19.1043 45.3394 19.6211 45.5082C19.6612 45.5493 19.6996 45.5893 19.7413 45.6294C19.6264 45.6167 19.5104 45.6009 19.3987 45.5846L19.4013 45.583ZM20.9666 3.80943C20.9577 3.83262 20.9561 3.85634 20.9482 3.879C20.9535 3.85792 20.955 3.8342 20.964 3.81101L20.9666 3.80943ZM24.8441 23.0806C24.8441 23.0279 24.8441 22.9789 24.8404 22.9283C24.8441 22.9789 24.8441 23.0295 24.8441 23.0806ZM20.8017 29.6538C20.8017 29.639 20.8054 29.6269 20.8043 29.6127C20.8054 29.6269 20.8001 29.6406 20.8017 29.6538ZM26.7973 44.3113C26.7799 44.0008 26.9132 43.6551 26.6576 43.3821C26.9132 43.6567 26.7799 44.0008 26.7973 44.3113ZM26.6481 43.3673C26.6346 43.3653 26.6212 43.3625 26.608 43.3589C26.6212 43.3625 26.6346 43.3653 26.6481 43.3673ZM9.08561 34.6037C8.91327 34.1921 8.74146 33.7774 8.56964 33.3636H8.55225C8.54593 33.3236 8.53907 33.2809 8.53117 33.2382C7.93614 31.4658 7.61096 29.6543 7.719 27.7786C7.80438 26.2739 8.20177 24.8525 8.78204 23.4738C8.79408 23.4523 8.79729 23.4269 8.791 23.4031L8.78046 23.3973C8.86847 23.3346 8.91907 23.2614 8.8632 23.1523L8.87269 23.1644C8.97388 23.147 8.99391 23.0679 9.0055 22.9826C9.01503 22.973 9.02181 22.9611 9.02515 22.948C9.02849 22.9349 9.02825 22.9212 9.02448 22.9082C9.05332 22.8927 9.07662 22.8686 9.09116 22.8392C9.1057 22.8098 9.11076 22.7767 9.10564 22.7443V22.7549C9.80713 21.608 10.5813 20.5197 11.55 19.5753C12.1092 19.0303 12.7201 18.5459 13.3225 18.0511C13.9279 17.6435 14.5359 17.2347 15.1466 16.8246C15.3047 16.715 15.467 16.6059 15.6256 16.4963C15.9086 16.3366 16.1703 16.1418 16.4046 15.9166L16.7735 15.6056C16.9374 15.5323 17.0212 15.379 17.1377 15.2551C17.5161 14.9589 17.767 14.5658 17.9752 14.1404C18.4005 13.4553 18.4179 12.7079 18.3151 11.9411C18.3046 11.8515 18.1006 11.6249 18.4379 11.6865C19.1647 12.436 19.638 13.3146 19.8035 14.347C20.125 16.3498 19.8129 18.2171 18.5913 19.8883C18.4964 20.0174 18.4231 20.1629 18.3404 20.3015C18.05 20.6509 17.7659 21.0067 17.5388 21.4041C17.3538 21.5622 17.2415 21.7683 17.1308 21.978C16.9387 22.2026 16.7756 22.4505 16.6454 22.7159C16.4196 23.0165 16.2286 23.3418 16.0762 23.6856C15.8353 24.0544 15.6362 24.449 15.4828 24.862C15.3052 25.1782 15.1439 25.4992 15.1039 25.8633C15.0609 25.9116 15.0238 25.9646 14.9932 26.0215C14.5062 27.299 14.2332 28.6219 14.1157 29.9848C14.0688 30.5319 14.1568 31.0826 14.0487 31.6254C13.9433 30.9503 13.7889 30.2773 13.7367 29.5985C13.5965 27.8313 13.6313 26.0589 13.6487 24.2891C13.6556 23.5797 13.6487 22.8703 13.6487 22.1688C12.8253 23.0357 12.1396 24.0236 11.6154 25.0981C11.437 25.4006 11.2887 25.72 11.1727 26.0515C10.1397 28.4759 9.83664 31.0057 10.0316 33.6129C10.1313 34.9653 10.4533 36.2697 10.8955 37.5473C10.2488 36.8152 9.80607 35.9561 9.33912 35.1081C9.27271 34.9853 9.25795 34.8214 9.10564 34.7508C9.13515 34.7002 9.10722 34.6507 9.08561 34.6037ZM8.60548 36.6349C8.36831 35.8481 8.48795 35.0386 8.45738 34.2401C8.48795 35.0386 8.36831 35.8481 8.60548 36.6349ZM9.10406 22.7433C9.0882 22.749 9.07381 22.7582 9.06188 22.7701C9.04995 22.7821 9.04078 22.7965 9.03502 22.8123C9.04078 22.7965 9.04995 22.7821 9.06188 22.7701C9.07381 22.7582 9.0882 22.749 9.10406 22.7433ZM9.02026 22.9082C9.02026 22.8977 9.02448 22.8882 9.02448 22.8777C9.02448 22.8882 9.02026 22.8977 9.02026 22.9082ZM15.9176 43.3737C15.9471 43.4032 15.9735 43.4295 16.0014 43.459C15.9735 43.4295 15.9487 43.4032 15.9176 43.3737ZM22.836 47.8614C22.7897 47.8614 22.7401 47.8656 22.6922 47.8667C22.7391 47.8656 22.7886 47.8624 22.835 47.8614H22.836ZM23.6603 47.9252C23.9349 47.9294 24.2111 47.9215 24.4857 47.9252C24.2116 47.9215 23.9339 47.9289 23.6593 47.9252H23.6603ZM37.0471 41.8853C37.0661 41.8748 37.0682 41.8458 37.074 41.82C37.0671 41.8458 37.065 41.8763 37.046 41.8853H37.0471ZM44.4193 32.5689C44.423 32.5689 44.423 32.5625 44.4272 32.5599C44.423 32.5599 44.423 32.5662 44.4193 32.5689ZM44.9685 30.9877C44.8167 31.4468 44.5911 31.879 44.5057 32.358C44.4219 32.4023 44.4167 32.4798 44.4193 32.5583C44.419 32.556 44.419 32.5537 44.4193 32.5515C43.9618 33.4474 43.5476 34.3666 43.0248 35.2309C42.5631 35.9925 42.0455 36.7151 41.5311 37.4366C41.3309 37.6806 41.1322 37.9246 40.9319 38.1676C39.813 39.4878 38.5476 40.6505 37.1862 41.7135V41.7188C37.186 41.7314 37.1828 41.7437 37.177 41.7549C37.1711 41.7661 37.1627 41.7757 37.1525 41.7831C37.1423 41.7904 37.1305 41.7953 37.118 41.7973C37.1056 41.7993 37.0929 41.7984 37.0808 41.7947V41.791C37.0808 41.7868 37.0808 41.791 37.0808 41.7841L36.9343 41.8948H36.9385C36.9501 41.8948 36.9586 41.8906 36.9691 41.8906C36.9586 41.8906 36.9501 41.8964 36.9385 41.8948C36.8985 41.9243 36.8595 41.9549 36.8194 41.9844C35.8997 42.5815 34.9685 43.1634 34.0029 43.6883C33.4321 43.8954 32.9241 44.2459 32.3269 44.3898L30.0512 44.1869C29.8899 44.1479 29.735 44.0894 29.5621 44.1105C29.4193 44.0309 29.2554 44.0704 29.1004 44.0361C28.2709 43.8454 27.4698 43.5655 26.6455 43.3626C26.6107 43.2798 26.5322 43.2756 26.4589 43.2572C26.0148 43.0464 25.5701 42.8338 25.125 42.6195L25.1197 42.6247C25.0849 42.6063 25.0517 42.5863 25.0185 42.5673C24.9975 42.5554 24.9734 42.5505 24.9495 42.5531C24.912 42.5209 24.8762 42.4888 24.8404 42.4556C24.2801 42.0381 23.6614 41.7008 23.1538 41.2112C22.2173 40.3284 21.4758 39.3012 20.8813 38.1613L20.8892 38.1681C20.8813 38.0985 20.8665 38.0358 20.8027 37.9973C20.8064 37.9973 20.8064 38.0026 20.8106 38.0037C20.8038 37.9399 20.7943 37.8761 20.7321 37.8398C20.7263 37.7596 20.72 37.6816 20.6372 37.6374C20.6667 37.4793 20.5729 37.3507 20.5266 37.2157C20.2478 36.3809 20.0022 35.5382 19.9916 34.6501C19.9837 33.9218 19.9278 33.1871 20.009 32.4682C20.1091 31.6081 20.3916 30.7817 20.701 29.969C20.7052 29.9426 20.7089 29.9163 20.7131 29.8904C20.719 29.8832 20.7228 29.8744 20.7242 29.8652C20.7256 29.8559 20.7245 29.8464 20.721 29.8377C20.8001 29.7993 20.8011 29.726 20.808 29.6538C20.9134 29.5726 20.9535 29.4567 20.9772 29.3297C20.9417 29.3347 20.9081 29.3489 20.8798 29.3709C20.8515 29.3929 20.8295 29.4219 20.8159 29.4551C20.8296 29.422 20.8517 29.3931 20.8799 29.3711C20.9082 29.3491 20.9417 29.3348 20.9772 29.3297L20.9693 29.3349C21.5653 28.2672 22.2937 27.2879 23.0774 26.3477C23.6361 25.7402 24.1949 25.133 24.7539 24.5262C24.7689 24.5044 24.7796 24.4799 24.7856 24.454C24.8098 24.4287 24.8335 24.405 24.8593 24.3808C24.8852 24.3565 24.9215 24.3281 24.9553 24.3038C24.9545 24.3002 24.9545 24.2964 24.9553 24.2928C24.9545 24.2964 24.9545 24.3002 24.9553 24.3038C24.9553 24.3038 24.9553 24.3075 24.9553 24.3102C25.5566 23.6888 26.1822 23.0901 26.6449 22.3496C26.7016 22.3156 26.7537 22.2745 26.7999 22.2273C28.0121 20.6831 28.9412 18.9971 29.3682 17.0623C29.5388 16.4669 29.6476 15.8555 29.6928 15.2377C29.8098 13.8332 29.7455 12.4444 29.2538 11.1021C28.7736 9.43767 27.8387 8.06157 26.5785 6.89208V6.89577C26.548 6.86362 26.5158 6.83041 26.4842 6.79879C25.9572 6.25331 25.3358 5.82904 24.6923 5.43851C24.0405 4.9963 23.3369 4.63575 22.5973 4.36493L22.5947 4.37653C22.553 4.30063 22.4787 4.298 22.4054 4.28482C21.9464 4.0661 21.4852 3.84843 20.9677 3.80732V3.80996C20.915 3.69507 20.8159 3.71246 20.7195 3.71509C20.7261 3.73959 20.7395 3.76172 20.7582 3.77896C20.7768 3.7962 20.7999 3.80785 20.8249 3.81259C20.7998 3.80815 20.7765 3.7966 20.7578 3.77931C20.7392 3.76203 20.7258 3.73974 20.7195 3.71509L20.7263 3.72458C20.6567 3.61917 20.5487 3.62339 20.4433 3.62339C20.3661 3.5665 20.2783 3.52562 20.1851 3.50318C20.0918 3.48073 19.9951 3.47716 19.9004 3.49268C19.8794 3.48669 19.8574 3.4849 19.8356 3.48741C19.7381 3.36461 19.6058 3.36461 19.4667 3.382C19.1965 3.25839 18.8966 3.21451 18.6023 3.25551C18.582 3.24635 18.5596 3.24307 18.5375 3.24603C18.4253 3.11005 18.2598 3.15274 18.1159 3.12059C17.8912 3.02984 17.6497 2.98798 17.4075 2.99779C17.5593 2.7074 17.8956 2.82492 18.1117 2.68157C18.6798 2.54384 19.248 2.40821 19.8161 2.2747C19.5637 2.21303 19.4398 2.08233 19.4066 1.87468C19.4398 2.08233 19.5647 2.21303 19.8161 2.27312C20.1972 2.20934 20.5787 2.14663 20.9603 2.08127C21.5269 2.02857 22.095 1.96901 22.6632 1.91315C23.8648 1.82671 25.0638 1.91842 26.2613 1.97428C26.6028 1.99168 26.9401 2.10815 27.2895 2.11975L28.5897 2.35586C29.619 2.60778 30.6452 2.88026 31.637 3.25182C31.6878 3.26289 31.7401 3.26468 31.7915 3.2571C31.8305 3.35302 31.9159 3.34775 31.9954 3.35565L31.9849 3.35987C32.8461 3.75761 33.7081 4.15552 34.5711 4.55361C34.6322 4.58734 34.6949 4.62054 34.755 4.65111C34.8378 4.70013 34.9216 4.7523 35.0048 4.80184C35.0048 4.70803 34.9711 4.66429 34.9231 4.64373C34.9711 4.66271 35.0032 4.70645 35.0048 4.80184C35.0512 4.8282 35.0981 4.85455 35.1461 4.88143C35.8302 5.33609 36.5153 5.79092 37.2015 6.24593C37.2347 6.21378 37.2495 6.21273 37.2542 6.22327C37.2474 6.21273 37.2326 6.21378 37.2015 6.24593C37.2072 6.2565 37.2154 6.26547 37.2254 6.27201C37.2355 6.27855 37.247 6.28246 37.259 6.28335V6.27544C37.2817 6.27562 37.3036 6.28365 37.3211 6.29815C37.3386 6.31265 37.3505 6.33274 37.3549 6.35503L37.3454 6.34712C37.3907 6.38612 37.4361 6.42354 37.4803 6.46202H37.4898C37.5536 6.44199 37.5805 6.4715 37.5857 6.53264L37.5815 6.53949C38.6883 7.42122 39.6897 8.41838 40.6647 9.444C40.6655 9.45695 40.67 9.4694 40.6778 9.4798C40.6856 9.4902 40.6962 9.49809 40.7084 9.5025C41.0594 9.93572 41.4073 10.3705 41.7567 10.8043C42.8259 12.2805 43.7319 13.8682 44.4588 15.5397L44.4762 15.5329C44.491 15.5808 44.5026 15.6304 44.5163 15.6799C44.9695 16.9348 45.3949 18.1976 45.6605 19.5099C46.4482 23.3987 46.2172 27.2254 44.9674 30.9898L44.9685 30.9877Z" fill="#2979FF"/>
</svg>
